<svg xmlns="http://www.w3.org/2000/svg" xmlns:xlink="http://www.w3.org/1999/xlink" width="200" zoomAndPan="magnify" viewBox="0 0 375 374.999991" height="200" preserveAspectRatio="xMidYMid meet" version="1.0"><defs><g/></defs><g fill="#000000" fill-opacity="1"><g transform="translate(10.996143, 216.203013)"><g><path d="M 10.0625 -6.71875 C 4.976562 -12.269531 2.4375 -19.070312 2.4375 -27.125 C 2.4375 -35.175781 4.976562 -41.988281 10.0625 -47.5625 C 15.144531 -53.144531 21.609375 -55.9375 29.453125 -55.9375 C 36.648438 -55.9375 42.582031 -53.675781 47.25 -49.15625 L 47.25 -54.34375 L 66 -54.34375 L 66 0 L 47.453125 0 L 47.453125 -6.140625 L 47.25 -6.140625 C 42.582031 -0.984375 36.648438 1.59375 29.453125 1.59375 C 21.609375 1.59375 15.144531 -1.175781 10.0625 -6.71875 Z M 26 -36.328125 C 23.570312 -33.929688 22.359375 -30.859375 22.359375 -27.109375 C 22.359375 -23.367188 23.519531 -20.316406 25.84375 -17.953125 C 28.175781 -15.585938 31.25 -14.40625 35.0625 -14.40625 C 38.738281 -14.40625 41.757812 -15.601562 44.125 -18 C 46.488281 -20.40625 47.671875 -23.445312 47.671875 -27.125 C 47.671875 -30.863281 46.453125 -33.929688 44.015625 -36.328125 C 41.578125 -38.734375 38.59375 -39.9375 35.0625 -39.9375 C 31.457031 -39.9375 28.4375 -38.734375 26 -36.328125 Z M 26 -36.328125 "/></g></g></g><g fill="#000000" fill-opacity="1"><g transform="translate(73.377296, 216.203013)"><g><path d="M 24.046875 -54.34375 L 24.046875 -28.5 C 24.046875 -23.132812 24.859375 -19.320312 26.484375 -17.0625 C 28.109375 -14.800781 30.863281 -13.671875 34.75 -13.671875 C 38.632812 -13.671875 41.390625 -14.800781 43.015625 -17.0625 C 44.640625 -19.320312 45.453125 -23.132812 45.453125 -28.5 L 45.453125 -54.34375 L 64.203125 -54.34375 L 64.203125 -23.9375 C 64.203125 -14.894531 61.851562 -8.378906 57.15625 -4.390625 C 52.457031 -0.398438 44.988281 1.59375 34.75 1.59375 C 24.507812 1.59375 17.039062 -0.398438 12.34375 -4.390625 C 7.644531 -8.378906 5.296875 -14.894531 5.296875 -23.9375 L 5.296875 -54.34375 Z M 24.046875 -54.34375 "/></g></g></g><g fill="#000000" fill-opacity="1"><g transform="translate(132.898742, 216.203013)"><g><path d="M 29.984375 -55.9375 C 33.085938 -55.9375 36.15625 -55.582031 39.1875 -54.875 C 42.226562 -54.164062 44.492188 -53.457031 45.984375 -52.75 L 48.203125 -51.703125 L 42.0625 -39.40625 C 37.820312 -41.664062 33.796875 -42.796875 29.984375 -42.796875 C 27.859375 -42.796875 26.351562 -42.566406 25.46875 -42.109375 C 24.59375 -41.648438 24.15625 -40.785156 24.15625 -39.515625 C 24.15625 -39.234375 24.1875 -38.953125 24.25 -38.671875 C 24.320312 -38.390625 24.460938 -38.125 24.671875 -37.875 C 24.890625 -37.625 25.085938 -37.410156 25.265625 -37.234375 C 25.441406 -37.054688 25.738281 -36.863281 26.15625 -36.65625 C 26.582031 -36.445312 26.921875 -36.285156 27.171875 -36.171875 C 27.421875 -36.066406 27.828125 -35.910156 28.390625 -35.703125 C 28.953125 -35.492188 29.375 -35.332031 29.65625 -35.21875 C 29.945312 -35.113281 30.425781 -34.953125 31.09375 -34.734375 C 31.757812 -34.523438 32.269531 -34.390625 32.625 -34.328125 C 34.8125 -33.691406 36.71875 -32.984375 38.34375 -32.203125 C 39.96875 -31.429688 41.679688 -30.375 43.484375 -29.03125 C 45.285156 -27.6875 46.679688 -25.988281 47.671875 -23.9375 C 48.660156 -21.894531 49.15625 -19.566406 49.15625 -16.953125 C 49.15625 -4.585938 40.570312 1.59375 23.40625 1.59375 C 19.519531 1.59375 15.828125 0.992188 12.328125 -0.203125 C 8.835938 -1.410156 6.316406 -2.613281 4.765625 -3.8125 L 2.4375 -5.71875 L 10.0625 -18.53125 C 10.625 -18.039062 11.363281 -17.457031 12.28125 -16.78125 C 13.207031 -16.113281 14.867188 -15.195312 17.265625 -14.03125 C 19.671875 -12.863281 21.753906 -12.28125 23.515625 -12.28125 C 27.398438 -12.28125 29.34375 -13.585938 29.34375 -16.203125 C 29.34375 -17.410156 28.847656 -18.347656 27.859375 -19.015625 C 26.867188 -19.679688 25.191406 -20.4375 22.828125 -21.28125 C 20.460938 -22.132812 18.609375 -22.914062 17.265625 -23.625 C 13.878906 -25.382812 11.195312 -27.378906 9.21875 -29.609375 C 7.238281 -31.835938 6.25 -34.785156 6.25 -38.453125 C 6.25 -43.960938 8.382812 -48.253906 12.65625 -51.328125 C 16.925781 -54.398438 22.703125 -55.9375 29.984375 -55.9375 Z M 29.984375 -55.9375 "/></g></g></g><g fill="#000000" fill-opacity="1"><g transform="translate(175.050095, 216.203013)"><g><path d="M 9.53125 -54.34375 L 9.53125 -74.578125 L 28.28125 -74.578125 L 28.28125 -54.34375 L 39.71875 -54.34375 L 39.71875 -40.046875 L 28.28125 -40.046875 L 28.28125 -22.78125 C 28.28125 -17.757812 29.691406 -15.25 32.515625 -15.25 C 33.222656 -15.25 33.960938 -15.390625 34.734375 -15.671875 C 35.515625 -15.960938 36.117188 -16.25 36.546875 -16.53125 L 37.1875 -16.953125 L 41.84375 -1.796875 C 37.820312 0.460938 33.234375 1.59375 28.078125 1.59375 C 24.546875 1.59375 21.507812 0.972656 18.96875 -0.265625 C 16.425781 -1.503906 14.5 -3.164062 13.1875 -5.25 C 11.882812 -7.332031 10.945312 -9.519531 10.375 -11.8125 C 9.8125 -14.101562 9.53125 -16.554688 9.53125 -19.171875 L 9.53125 -40.046875 L 1.6875 -40.046875 L 1.6875 -54.34375 Z M 9.53125 -54.34375 "/></g></g></g><g fill="#000000" fill-opacity="1"><g transform="translate(206.927656, 216.203013)"><g><path d="M 11.484375 -6.453125 C 5.453125 -11.828125 2.4375 -18.710938 2.4375 -27.109375 C 2.4375 -35.515625 5.578125 -42.421875 11.859375 -47.828125 C 18.148438 -53.234375 25.921875 -55.9375 35.171875 -55.9375 C 44.285156 -55.9375 51.96875 -53.21875 58.21875 -47.78125 C 64.46875 -42.34375 67.59375 -35.457031 67.59375 -27.125 C 67.59375 -18.789062 64.535156 -11.921875 58.421875 -6.515625 C 52.316406 -1.109375 44.566406 1.59375 35.171875 1.59375 C 25.421875 1.59375 17.523438 -1.085938 11.484375 -6.453125 Z M 26 -36.328125 C 23.570312 -33.929688 22.359375 -30.859375 22.359375 -27.109375 C 22.359375 -23.367188 23.519531 -20.316406 25.84375 -17.953125 C 28.175781 -15.585938 31.25 -14.40625 35.0625 -14.40625 C 38.738281 -14.40625 41.757812 -15.601562 44.125 -18 C 46.488281 -20.40625 47.671875 -23.445312 47.671875 -27.125 C 47.671875 -30.863281 46.453125 -33.929688 44.015625 -36.328125 C 41.578125 -38.734375 38.59375 -39.9375 35.0625 -39.9375 C 31.457031 -39.9375 28.4375 -38.734375 26 -36.328125 Z M 26 -36.328125 "/></g></g></g><g fill="#000000" fill-opacity="1"><g transform="translate(266.97866, 216.203013)"><g><path d="M 6.359375 0 L 6.359375 -54.34375 L 25.109375 -54.34375 L 25.109375 -48.625 L 25.3125 -48.625 C 30.1875 -53.5 35.378906 -55.9375 40.890625 -55.9375 C 43.578125 -55.9375 46.242188 -55.582031 48.890625 -54.875 C 51.535156 -54.164062 54.078125 -53.066406 56.515625 -51.578125 C 58.953125 -50.097656 60.929688 -48 62.453125 -45.28125 C 63.972656 -42.5625 64.734375 -39.40625 64.734375 -35.8125 L 64.734375 0 L 45.984375 0 L 45.984375 -30.71875 C 45.984375 -33.539062 45.082031 -36.007812 43.28125 -38.125 C 41.476562 -40.25 39.128906 -41.3125 36.234375 -41.3125 C 33.410156 -41.3125 30.847656 -40.21875 28.546875 -38.03125 C 26.253906 -35.84375 25.109375 -33.40625 25.109375 -30.71875 L 25.109375 0 Z M 6.359375 0 "/></g></g></g><g fill="#000000" fill-opacity="1"><g transform="translate(327.029688, 216.203013)"><g><path d="M 18.4375 -22.671875 C 21.820312 -22.671875 24.695312 -21.488281 27.0625 -19.125 C 29.425781 -16.757812 30.609375 -13.878906 30.609375 -10.484375 C 30.609375 -7.171875 29.425781 -4.328125 27.0625 -1.953125 C 24.695312 0.410156 21.820312 1.59375 18.4375 1.59375 C 15.113281 1.59375 12.269531 0.410156 9.90625 -1.953125 C 7.539062 -4.328125 6.359375 -7.171875 6.359375 -10.484375 C 6.359375 -13.878906 7.539062 -16.757812 9.90625 -19.125 C 12.269531 -21.488281 15.113281 -22.671875 18.4375 -22.671875 Z M 18.4375 -22.671875 "/></g></g></g><g fill="#000000" fill-opacity="1"><g transform="translate(64.451339, 244.976973)"><g><path d="M 12.015625 -13.953125 C 12.015625 -13.742188 11.953125 -13.53125 11.828125 -13.3125 L 7.25 -6.859375 L 7.25 -1.015625 C 7.25 -0.734375 7.148438 -0.492188 6.953125 -0.296875 C 6.765625 -0.0976562 6.535156 0 6.265625 0 C 5.984375 0 5.742188 -0.0976562 5.546875 -0.296875 C 5.347656 -0.492188 5.25 -0.734375 5.25 -1.015625 L 5.25 -7.03125 L 0.6875 -13.1875 C 0.488281 -13.445312 0.390625 -13.703125 0.390625 -13.953125 C 0.390625 -14.242188 0.5 -14.488281 0.71875 -14.6875 C 0.945312 -14.882812 1.195312 -14.984375 1.46875 -14.984375 C 1.789062 -14.984375 2.066406 -14.828125 2.296875 -14.515625 L 6.3125 -8.96875 L 10.171875 -14.5 C 10.390625 -14.820312 10.671875 -14.984375 11.015625 -14.984375 C 11.285156 -14.984375 11.519531 -14.882812 11.71875 -14.6875 C 11.914062 -14.488281 12.015625 -14.242188 12.015625 -13.953125 Z M 12.015625 -13.953125 "/></g></g></g><g fill="#000000" fill-opacity="1"><g transform="translate(90.733921, 244.976973)"><g><path d="M 12.078125 -5.578125 C 12.078125 -4.472656 11.828125 -3.476562 11.328125 -2.59375 C 10.835938 -1.71875 10.160156 -1.03125 9.296875 -0.53125 C 8.441406 -0.03125 7.492188 0.21875 6.453125 0.21875 C 5.421875 0.21875 4.472656 -0.03125 3.609375 -0.53125 C 2.753906 -1.03125 2.078125 -1.71875 1.578125 -2.59375 C 1.078125 -3.476562 0.828125 -4.472656 0.828125 -5.578125 C 0.828125 -6.691406 1.078125 -7.695312 1.578125 -8.59375 C 2.078125 -9.488281 2.753906 -10.179688 3.609375 -10.671875 C 4.472656 -11.171875 5.421875 -11.421875 6.453125 -11.421875 C 7.492188 -11.421875 8.441406 -11.171875 9.296875 -10.671875 C 10.160156 -10.179688 10.835938 -9.488281 11.328125 -8.59375 C 11.828125 -7.695312 12.078125 -6.691406 12.078125 -5.578125 Z M 10.0625 -5.578125 C 10.0625 -6.347656 9.898438 -7.035156 9.578125 -7.640625 C 9.253906 -8.242188 8.816406 -8.710938 8.265625 -9.046875 C 7.722656 -9.378906 7.117188 -9.546875 6.453125 -9.546875 C 5.785156 -9.546875 5.175781 -9.378906 4.625 -9.046875 C 4.082031 -8.710938 3.648438 -8.242188 3.328125 -7.640625 C 3.015625 -7.035156 2.859375 -6.347656 2.859375 -5.578125 C 2.859375 -4.828125 3.015625 -4.148438 3.328125 -3.546875 C 3.648438 -2.953125 4.082031 -2.488281 4.625 -2.15625 C 5.175781 -1.820312 5.785156 -1.65625 6.453125 -1.65625 C 7.117188 -1.65625 7.722656 -1.820312 8.265625 -2.15625 C 8.816406 -2.488281 9.253906 -2.953125 9.578125 -3.546875 C 9.898438 -4.148438 10.0625 -4.828125 10.0625 -5.578125 Z M 10.0625 -5.578125 "/></g></g></g><g fill="#000000" fill-opacity="1"><g transform="translate(117.549244, 244.976973)"><g><path d="M 9.828125 -11.171875 C 10.117188 -11.171875 10.359375 -11.070312 10.546875 -10.875 C 10.742188 -10.675781 10.84375 -10.429688 10.84375 -10.140625 L 10.84375 -4.46875 C 10.84375 -3 10.429688 -1.851562 9.609375 -1.03125 C 8.796875 -0.21875 7.644531 0.1875 6.15625 0.1875 C 4.675781 0.1875 3.53125 -0.21875 2.71875 -1.03125 C 1.914062 -1.851562 1.515625 -3 1.515625 -4.46875 L 1.515625 -10.140625 C 1.515625 -10.429688 1.609375 -10.675781 1.796875 -10.875 C 1.992188 -11.070312 2.234375 -11.171875 2.515625 -11.171875 C 2.816406 -11.171875 3.0625 -11.070312 3.25 -10.875 C 3.4375 -10.675781 3.53125 -10.429688 3.53125 -10.140625 L 3.53125 -4.46875 C 3.53125 -2.613281 4.40625 -1.6875 6.15625 -1.6875 C 7.019531 -1.6875 7.679688 -1.921875 8.140625 -2.390625 C 8.597656 -2.859375 8.828125 -3.550781 8.828125 -4.46875 L 8.828125 -10.140625 C 8.828125 -10.429688 8.921875 -10.675781 9.109375 -10.875 C 9.304688 -11.070312 9.546875 -11.171875 9.828125 -11.171875 Z M 9.828125 -11.171875 "/></g></g></g><g fill="#000000" fill-opacity="1"><g transform="translate(143.810519, 244.976973)"><g><path d="M 7.203125 -11.421875 C 9.765625 -11.421875 11.046875 -9.882812 11.046875 -6.8125 L 11.046875 -1.015625 C 11.046875 -0.734375 10.945312 -0.492188 10.75 -0.296875 C 10.5625 -0.0976562 10.316406 0 10.015625 0 C 9.734375 0 9.492188 -0.0976562 9.296875 -0.296875 C 9.109375 -0.492188 9.015625 -0.734375 9.015625 -1.015625 L 9.015625 -6.796875 C 9.015625 -7.640625 8.820312 -8.304688 8.4375 -8.796875 C 8.050781 -9.296875 7.425781 -9.546875 6.5625 -9.546875 C 6 -9.546875 5.484375 -9.421875 5.015625 -9.171875 C 4.554688 -8.921875 4.191406 -8.585938 3.921875 -8.171875 C 3.660156 -7.753906 3.53125 -7.296875 3.53125 -6.796875 L 3.53125 -1.015625 C 3.53125 -0.734375 3.4375 -0.492188 3.25 -0.296875 C 3.0625 -0.0976562 2.816406 0 2.515625 0 C 2.210938 0 1.96875 -0.09375 1.78125 -0.28125 C 1.601562 -0.476562 1.515625 -0.722656 1.515625 -1.015625 L 1.515625 -10.140625 C 1.515625 -10.429688 1.609375 -10.675781 1.796875 -10.875 C 1.992188 -11.070312 2.234375 -11.171875 2.515625 -11.171875 C 2.816406 -11.171875 3.0625 -11.070312 3.25 -10.875 C 3.4375 -10.675781 3.53125 -10.429688 3.53125 -10.140625 L 3.53125 -9.40625 C 3.90625 -9.96875 4.421875 -10.441406 5.078125 -10.828125 C 5.742188 -11.222656 6.453125 -11.421875 7.203125 -11.421875 Z M 7.203125 -11.421875 "/></g></g></g><g fill="#000000" fill-opacity="1"><g transform="translate(170.263579, 244.976973)"><g><path d="M 10.84375 -11.3125 C 11.144531 -11.3125 11.390625 -11.210938 11.578125 -11.015625 C 11.773438 -10.828125 11.875 -10.578125 11.875 -10.265625 L 11.875 -0.890625 C 11.875 0.253906 11.628906 1.210938 11.140625 1.984375 C 10.648438 2.765625 9.984375 3.335938 9.140625 3.703125 C 8.304688 4.078125 7.363281 4.265625 6.3125 4.265625 C 5.738281 4.265625 5.070312 4.164062 4.3125 3.96875 C 3.550781 3.769531 3.066406 3.5625 2.859375 3.34375 C 2.410156 3.113281 2.1875 2.832031 2.1875 2.5 C 2.1875 2.40625 2.21875 2.289062 2.28125 2.15625 C 2.4375 1.800781 2.695312 1.625 3.0625 1.625 C 3.25 1.625 3.453125 1.664062 3.671875 1.75 C 4.804688 2.1875 5.691406 2.40625 6.328125 2.40625 C 7.460938 2.40625 8.332031 2.128906 8.9375 1.578125 C 9.539062 1.035156 9.84375 0.289062 9.84375 -0.65625 L 9.84375 -1.8125 C 9.550781 -1.257812 9.050781 -0.78125 8.34375 -0.375 C 7.632812 0.0195312 6.890625 0.21875 6.109375 0.21875 C 5.128906 0.21875 4.234375 -0.03125 3.421875 -0.53125 C 2.617188 -1.03125 1.984375 -1.722656 1.515625 -2.609375 C 1.054688 -3.492188 0.828125 -4.492188 0.828125 -5.609375 C 0.828125 -6.710938 1.054688 -7.707031 1.515625 -8.59375 C 1.984375 -9.488281 2.617188 -10.179688 3.421875 -10.671875 C 4.222656 -11.171875 5.109375 -11.421875 6.078125 -11.421875 C 6.859375 -11.421875 7.582031 -11.242188 8.25 -10.890625 C 8.925781 -10.535156 9.457031 -10.101562 9.84375 -9.59375 L 9.84375 -10.265625 C 9.84375 -10.566406 9.9375 -10.816406 10.125 -11.015625 C 10.3125 -11.210938 10.550781 -11.3125 10.84375 -11.3125 Z M 6.34375 -1.65625 C 7.039062 -1.65625 7.660156 -1.820312 8.203125 -2.15625 C 8.742188 -2.488281 9.164062 -2.957031 9.46875 -3.5625 C 9.78125 -4.164062 9.9375 -4.847656 9.9375 -5.609375 C 9.9375 -6.359375 9.78125 -7.03125 9.46875 -7.625 C 9.164062 -8.226562 8.742188 -8.695312 8.203125 -9.03125 C 7.660156 -9.375 7.039062 -9.546875 6.34375 -9.546875 C 5.664062 -9.546875 5.054688 -9.375 4.515625 -9.03125 C 3.972656 -8.695312 3.550781 -8.226562 3.25 -7.625 C 2.945312 -7.019531 2.796875 -6.347656 2.796875 -5.609375 C 2.796875 -4.867188 2.945312 -4.195312 3.25 -3.59375 C 3.550781 -2.988281 3.972656 -2.515625 4.515625 -2.171875 C 5.054688 -1.828125 5.664062 -1.65625 6.34375 -1.65625 Z M 6.34375 -1.65625 "/></g></g></g><g fill="#000000" fill-opacity="1"><g transform="translate(197.526392, 244.976973)"><g><path d="M 7.125 -11.421875 C 8.082031 -11.421875 8.953125 -11.171875 9.734375 -10.671875 C 10.515625 -10.179688 11.128906 -9.492188 11.578125 -8.609375 C 12.023438 -7.722656 12.25 -6.726562 12.25 -5.625 C 12.25 -4.519531 12.023438 -3.519531 11.578125 -2.625 C 11.128906 -1.726562 10.515625 -1.03125 9.734375 -0.53125 C 8.953125 -0.03125 8.09375 0.21875 7.15625 0.21875 C 6.414062 0.21875 5.726562 0.0546875 5.09375 -0.265625 C 4.457031 -0.597656 3.9375 -1.003906 3.53125 -1.484375 L 3.53125 -0.875 C 3.53125 -0.59375 3.4375 -0.347656 3.25 -0.140625 C 3.0625 0.0546875 2.816406 0.15625 2.515625 0.15625 C 2.234375 0.15625 1.992188 0.0625 1.796875 -0.125 C 1.609375 -0.320312 1.515625 -0.570312 1.515625 -0.875 L 1.515625 -14.75 C 1.515625 -15.050781 1.601562 -15.296875 1.78125 -15.484375 C 1.96875 -15.671875 2.210938 -15.765625 2.515625 -15.765625 C 2.816406 -15.765625 3.0625 -15.664062 3.25 -15.46875 C 3.4375 -15.269531 3.53125 -15.03125 3.53125 -14.75 L 3.53125 -9.546875 C 3.875 -10.054688 4.375 -10.492188 5.03125 -10.859375 C 5.6875 -11.234375 6.382812 -11.421875 7.125 -11.421875 Z M 6.890625 -1.65625 C 7.535156 -1.65625 8.117188 -1.828125 8.640625 -2.171875 C 9.171875 -2.523438 9.582031 -3.003906 9.875 -3.609375 C 10.164062 -4.210938 10.3125 -4.882812 10.3125 -5.625 C 10.3125 -6.363281 10.164062 -7.03125 9.875 -7.625 C 9.582031 -8.226562 9.171875 -8.695312 8.640625 -9.03125 C 8.117188 -9.375 7.535156 -9.546875 6.890625 -9.546875 C 6.210938 -9.546875 5.613281 -9.375 5.09375 -9.03125 C 4.570312 -8.695312 4.164062 -8.234375 3.875 -7.640625 C 3.582031 -7.046875 3.4375 -6.375 3.4375 -5.625 C 3.4375 -4.875 3.582031 -4.195312 3.875 -3.59375 C 4.164062 -3 4.570312 -2.523438 5.09375 -2.171875 C 5.613281 -1.828125 6.210938 -1.65625 6.890625 -1.65625 Z M 6.890625 -1.65625 "/></g></g></g><g fill="#000000" fill-opacity="1"><g transform="translate(224.512193, 244.976973)"><g><path d="M 3.703125 -1.015625 C 3.703125 -0.734375 3.601562 -0.492188 3.40625 -0.296875 C 3.207031 -0.0976562 2.96875 0 2.6875 0 C 2.40625 0 2.164062 -0.0976562 1.96875 -0.296875 C 1.78125 -0.492188 1.6875 -0.734375 1.6875 -1.015625 L 1.6875 -14.75 C 1.6875 -15.03125 1.785156 -15.269531 1.984375 -15.46875 C 2.179688 -15.664062 2.421875 -15.765625 2.703125 -15.765625 C 2.992188 -15.765625 3.234375 -15.664062 3.421875 -15.46875 C 3.609375 -15.269531 3.703125 -15.03125 3.703125 -14.75 Z M 3.703125 -1.015625 "/></g></g></g><g fill="#000000" fill-opacity="1"><g transform="translate(243.805429, 244.976973)"><g><path d="M 12.078125 -5.578125 C 12.078125 -4.472656 11.828125 -3.476562 11.328125 -2.59375 C 10.835938 -1.71875 10.160156 -1.03125 9.296875 -0.53125 C 8.441406 -0.03125 7.492188 0.21875 6.453125 0.21875 C 5.421875 0.21875 4.472656 -0.03125 3.609375 -0.53125 C 2.753906 -1.03125 2.078125 -1.71875 1.578125 -2.59375 C 1.078125 -3.476562 0.828125 -4.472656 0.828125 -5.578125 C 0.828125 -6.691406 1.078125 -7.695312 1.578125 -8.59375 C 2.078125 -9.488281 2.753906 -10.179688 3.609375 -10.671875 C 4.472656 -11.171875 5.421875 -11.421875 6.453125 -11.421875 C 7.492188 -11.421875 8.441406 -11.171875 9.296875 -10.671875 C 10.160156 -10.179688 10.835938 -9.488281 11.328125 -8.59375 C 11.828125 -7.695312 12.078125 -6.691406 12.078125 -5.578125 Z M 10.0625 -5.578125 C 10.0625 -6.347656 9.898438 -7.035156 9.578125 -7.640625 C 9.253906 -8.242188 8.816406 -8.710938 8.265625 -9.046875 C 7.722656 -9.378906 7.117188 -9.546875 6.453125 -9.546875 C 5.785156 -9.546875 5.175781 -9.378906 4.625 -9.046875 C 4.082031 -8.710938 3.648438 -8.242188 3.328125 -7.640625 C 3.015625 -7.035156 2.859375 -6.347656 2.859375 -5.578125 C 2.859375 -4.828125 3.015625 -4.148438 3.328125 -3.546875 C 3.648438 -2.953125 4.082031 -2.488281 4.625 -2.15625 C 5.175781 -1.820312 5.785156 -1.65625 6.453125 -1.65625 C 7.117188 -1.65625 7.722656 -1.820312 8.265625 -2.15625 C 8.816406 -2.488281 9.253906 -2.953125 9.578125 -3.546875 C 9.898438 -4.148438 10.0625 -4.828125 10.0625 -5.578125 Z M 10.0625 -5.578125 "/></g></g></g><g fill="#000000" fill-opacity="1"><g transform="translate(270.620753, 244.976973)"><g><path d="M 12.078125 -5.578125 C 12.078125 -4.472656 11.828125 -3.476562 11.328125 -2.59375 C 10.835938 -1.71875 10.160156 -1.03125 9.296875 -0.53125 C 8.441406 -0.03125 7.492188 0.21875 6.453125 0.21875 C 5.421875 0.21875 4.472656 -0.03125 3.609375 -0.53125 C 2.753906 -1.03125 2.078125 -1.71875 1.578125 -2.59375 C 1.078125 -3.476562 0.828125 -4.472656 0.828125 -5.578125 C 0.828125 -6.691406 1.078125 -7.695312 1.578125 -8.59375 C 2.078125 -9.488281 2.753906 -10.179688 3.609375 -10.671875 C 4.472656 -11.171875 5.421875 -11.421875 6.453125 -11.421875 C 7.492188 -11.421875 8.441406 -11.171875 9.296875 -10.671875 C 10.160156 -10.179688 10.835938 -9.488281 11.328125 -8.59375 C 11.828125 -7.695312 12.078125 -6.691406 12.078125 -5.578125 Z M 10.0625 -5.578125 C 10.0625 -6.347656 9.898438 -7.035156 9.578125 -7.640625 C 9.253906 -8.242188 8.816406 -8.710938 8.265625 -9.046875 C 7.722656 -9.378906 7.117188 -9.546875 6.453125 -9.546875 C 5.785156 -9.546875 5.175781 -9.378906 4.625 -9.046875 C 4.082031 -8.710938 3.648438 -8.242188 3.328125 -7.640625 C 3.015625 -7.035156 2.859375 -6.347656 2.859375 -5.578125 C 2.859375 -4.828125 3.015625 -4.148438 3.328125 -3.546875 C 3.648438 -2.953125 4.082031 -2.488281 4.625 -2.15625 C 5.175781 -1.820312 5.785156 -1.65625 6.453125 -1.65625 C 7.117188 -1.65625 7.722656 -1.820312 8.265625 -2.15625 C 8.816406 -2.488281 9.253906 -2.953125 9.578125 -3.546875 C 9.898438 -4.148438 10.0625 -4.828125 10.0625 -5.578125 Z M 10.0625 -5.578125 "/></g></g></g><g fill="#000000" fill-opacity="1"><g transform="translate(297.436087, 244.976973)"><g><path d="M 10.578125 -15.765625 C 10.867188 -15.765625 11.109375 -15.671875 11.296875 -15.484375 C 11.492188 -15.296875 11.59375 -15.050781 11.59375 -14.75 L 11.59375 -1.015625 C 11.59375 -0.734375 11.492188 -0.492188 11.296875 -0.296875 C 11.109375 -0.0976562 10.867188 0 10.578125 0 C 10.273438 0 10.03125 -0.09375 9.84375 -0.28125 C 9.65625 -0.476562 9.5625 -0.722656 9.5625 -1.015625 L 9.5625 -1.625 C 9.207031 -1.113281 8.707031 -0.675781 8.0625 -0.3125 C 7.414062 0.0390625 6.722656 0.21875 5.984375 0.21875 C 5.023438 0.21875 4.148438 -0.03125 3.359375 -0.53125 C 2.578125 -1.03125 1.957031 -1.722656 1.5 -2.609375 C 1.050781 -3.492188 0.828125 -4.492188 0.828125 -5.609375 C 0.828125 -6.710938 1.050781 -7.707031 1.5 -8.59375 C 1.945312 -9.488281 2.5625 -10.179688 3.34375 -10.671875 C 4.125 -11.171875 4.984375 -11.421875 5.921875 -11.421875 C 6.671875 -11.421875 7.363281 -11.265625 8 -10.953125 C 8.644531 -10.640625 9.164062 -10.234375 9.5625 -9.734375 L 9.5625 -14.75 C 9.5625 -15.050781 9.65625 -15.296875 9.84375 -15.484375 C 10.03125 -15.671875 10.273438 -15.765625 10.578125 -15.765625 Z M 6.21875 -1.65625 C 6.882812 -1.65625 7.476562 -1.828125 8 -2.171875 C 8.519531 -2.515625 8.925781 -2.984375 9.21875 -3.578125 C 9.507812 -4.171875 9.65625 -4.847656 9.65625 -5.609375 C 9.65625 -6.347656 9.507812 -7.019531 9.21875 -7.625 C 8.925781 -8.226562 8.519531 -8.695312 8 -9.03125 C 7.476562 -9.375 6.882812 -9.546875 6.21875 -9.546875 C 5.550781 -9.546875 4.957031 -9.375 4.4375 -9.03125 C 3.925781 -8.695312 3.523438 -8.226562 3.234375 -7.625 C 2.941406 -7.019531 2.796875 -6.347656 2.796875 -5.609375 C 2.796875 -4.847656 2.941406 -4.171875 3.234375 -3.578125 C 3.523438 -2.984375 3.925781 -2.515625 4.4375 -2.171875 C 4.957031 -1.828125 5.550781 -1.65625 6.21875 -1.65625 Z M 6.21875 -1.65625 "/></g></g></g></svg>