<svg xmlns="http://www.w3.org/2000/svg" xmlns:xlink="http://www.w3.org/1999/xlink" width="240" zoomAndPan="magnify" viewBox="0 0 375 374.999991" height="240" preserveAspectRatio="xMidYMid meet" version="1.0"><defs><g/></defs><path stroke-linecap="butt" transform="matrix(1.551515, 0, 0, 1.551515, -32.325059, 113.803037)" fill="none" stroke-linejoin="miter" d="M 34.407441 61.664591 C 31.126876 58.086939 29.487853 53.703622 29.487853 48.512123 C 29.487853 43.323141 31.126876 38.934789 34.407441 35.344548 C 37.685487 31.744235 41.852282 29.944079 46.907825 29.944079 C 51.542912 29.944079 55.3673 31.39931 58.37847 34.309773 L 58.37847 30.976337 L 70.463433 30.976337 L 70.463433 66.000072 L 58.511908 66.000072 L 58.511908 62.032176 L 58.37847 62.032176 C 55.3673 65.355541 51.542912 67.017223 46.907825 67.017223 C 41.852282 67.017223 37.685487 65.232173 34.407441 61.664591 Z M 44.674624 42.577902 C 43.108614 44.12377 42.32561 46.107718 42.32561 48.529747 C 42.32561 50.941704 43.075884 52.908028 44.573916 54.431237 C 46.087055 55.954446 48.071003 56.714792 50.525761 56.714792 C 52.8924 56.714792 54.838582 55.941858 56.361791 54.398507 C 57.882483 52.842568 58.645346 50.881279 58.645346 48.512123 C 58.645346 46.102683 57.859823 44.12377 56.293813 42.577902 C 54.727804 41.034551 52.80428 40.261617 50.525761 40.261617 C 48.204441 40.261617 46.253223 41.034551 44.674624 42.577902 Z M 83.631008 30.976337 L 83.631008 47.630927 C 83.631008 51.085213 84.15469 53.547524 85.199536 55.015344 C 86.244382 56.470575 88.016843 57.19819 90.51692 57.19819 C 93.027068 57.19819 94.807082 56.470575 95.84941 55.015344 C 96.894256 53.547524 97.417938 51.085213 97.417938 47.630927 L 97.417938 30.976337 L 109.502902 30.976337 L 109.502902 50.564049 C 109.502902 56.397561 107.987246 60.599604 104.953416 63.165141 C 101.929658 65.733196 97.118332 67.017223 90.51692 67.017223 C 83.925579 67.017223 79.114253 65.733196 76.080424 63.165141 C 73.056665 60.599604 71.546045 56.397561 71.546045 50.564049 L 71.546045 30.976337 Z M 125.812567 29.944079 C 127.811622 29.944079 129.790534 30.170672 131.746788 30.626376 C 133.713112 31.08208 135.175896 31.537784 136.130105 31.993488 L 137.565194 32.675785 L 133.597298 40.593954 C 130.863075 39.138723 128.267326 38.411107 125.812567 38.411107 C 124.445456 38.411107 123.478659 38.562169 122.912176 38.861776 C 122.345693 39.151311 122.061193 39.705205 122.061193 40.528493 C 122.061193 40.717321 122.083852 40.901113 122.129171 41.077352 C 122.171972 41.256109 122.262609 41.427313 122.396047 41.595999 C 122.539556 41.749578 122.667959 41.883017 122.778738 41.996313 C 122.889517 42.107092 123.078344 42.235495 123.34522 42.379004 C 123.622168 42.512442 123.83869 42.61315 123.994787 42.67861 C 124.160956 42.746588 124.422796 42.849814 124.777792 42.99584 C 125.145377 43.129278 125.417288 43.229986 125.596045 43.295447 C 125.784873 43.363425 126.09455 43.46665 126.530112 43.612677 C 126.963157 43.746115 127.295493 43.834235 127.529639 43.879553 C 128.939552 44.289938 130.16819 44.745642 131.213035 45.246665 C 132.257881 45.745169 133.358116 46.429984 134.513741 47.296073 C 135.681954 48.162162 136.580773 49.257362 137.215234 50.579155 C 137.859765 51.890877 138.182031 53.391427 138.182031 55.080804 C 138.182031 63.039256 132.648125 67.017223 121.577795 67.017223 C 119.077718 67.017223 116.69849 66.634533 114.442631 65.866634 C 112.186771 65.088665 110.560336 64.31573 109.558291 63.550349 L 108.057741 62.316676 L 112.977329 54.048547 C 113.342395 54.370812 113.820758 54.748467 114.4099 55.181512 C 114.999042 55.614557 116.066548 56.208734 117.609898 56.964044 C 119.165837 57.709284 120.510289 58.081903 121.645772 58.081903 C 124.15592 58.081903 125.412253 57.235956 125.412253 55.549096 C 125.412253 54.781198 125.089987 54.181985 124.445456 53.746423 C 123.810995 53.313378 122.728384 52.824944 121.195104 52.281121 C 119.671895 51.737297 118.48354 51.236275 117.627522 50.780571 C 115.437122 49.635017 113.704944 48.345954 112.425952 46.913383 C 111.159549 45.478293 110.525088 43.579947 110.525088 41.21079 C 110.525088 37.665868 111.899753 34.90395 114.644047 32.927555 C 117.398411 30.938571 121.122091 29.944079 125.812567 29.944079 Z M 139.810984 30.976337 L 139.810984 17.924576 L 151.895947 17.924576 L 151.895947 30.976337 L 159.265257 30.976337 L 159.265257 40.196157 L 151.895947 40.196157 L 151.895947 51.314324 C 151.895947 54.547051 152.80232 56.165933 154.615064 56.165933 C 155.070768 56.165933 155.546613 56.075296 156.047636 55.899057 C 156.558729 55.710229 156.946455 55.526437 157.213331 55.34768 L 157.63127 55.080804 L 160.632369 64.831859 C 158.031584 66.289608 155.070768 67.017223 151.747403 67.017223 C 149.478955 67.017223 147.522701 66.621944 145.878642 65.833904 C 144.244655 65.033275 143.005946 63.960735 142.162516 62.616282 C 141.316569 61.27183 140.71232 59.8594 140.344736 58.38151 C 139.98974 56.903619 139.810984 55.325021 139.810984 53.648232 L 139.810984 40.196157 L 134.760476 40.196157 L 134.760476 30.976337 Z M 161.606719 61.833277 C 157.716871 58.376474 155.773206 53.942803 155.773206 48.529747 C 155.773206 43.106619 157.79492 38.655324 161.840865 35.178379 C 165.896881 31.688846 170.909624 29.944079 176.876574 29.944079 C 182.745335 29.944079 187.690099 31.698917 191.713385 35.211109 C 195.746742 38.710714 197.76342 43.151938 197.76342 48.529747 C 197.76342 53.897485 195.797096 58.321085 191.864447 61.79803 C 187.929281 65.277492 182.934162 67.017223 176.876574 67.017223 C 170.597429 67.017223 165.509155 65.287563 161.606719 61.833277 Z M 170.959978 42.577902 C 169.39145 44.12377 168.608445 46.107718 168.608445 48.529747 C 168.608445 50.941704 169.35872 52.908028 170.85927 54.431237 C 172.36989 55.954446 174.353838 56.714792 176.811114 56.714792 C 179.177753 56.714792 181.121418 55.941858 182.644627 54.398507 C 184.167836 52.842568 184.928181 50.881279 184.928181 48.512123 C 184.928181 46.102683 184.145177 44.12377 182.579167 42.577902 C 181.010639 41.034551 179.089633 40.261617 176.811114 40.261617 C 174.487276 40.261617 172.536058 41.034551 170.959978 42.577902 Z M 197.010627 66.000072 L 197.010627 30.976337 L 209.098109 30.976337 L 209.098109 34.659733 L 209.231547 34.659733 C 212.376155 31.515125 215.719662 29.944079 219.264585 29.944079 C 220.99928 29.944079 222.716352 30.170672 224.4158 30.626376 C 226.127837 31.08208 227.76686 31.787036 229.335388 32.743763 C 230.911468 33.700489 232.19046 35.055012 233.167328 36.809849 C 234.146714 38.567205 234.635148 40.606542 234.635148 42.927862 L 234.635148 66.000072 L 222.550184 66.000072 L 222.550184 46.195838 C 222.550184 44.373023 221.966078 42.784353 220.800382 41.427313 C 219.644757 40.062719 218.131619 39.377904 216.266003 39.377904 C 214.443188 39.377904 212.791576 40.08286 211.313686 41.495291 C 209.835795 42.907721 209.098109 44.473731 209.098109 46.195838 L 209.098109 66.000072 Z M 243.499972 51.379784 C 245.680301 51.379784 247.530811 52.147683 249.051503 53.680962 C 250.584782 55.204171 251.352681 57.054681 251.352681 59.232493 C 251.352681 61.377574 250.584782 63.21046 249.051503 64.733669 C 247.530811 66.25436 245.680301 67.017223 243.499972 67.017223 C 241.357409 67.017223 239.522005 66.25436 237.998796 64.733669 C 236.478105 63.21046 235.715241 61.377574 235.715241 59.232493 C 235.715241 57.054681 236.478105 55.204171 237.998796 53.680962 C 239.522005 52.147683 241.357409 51.379784 243.499972 51.379784 Z M 243.499972 51.379784 " stroke="#ffffff" stroke-width="2.987495" stroke-opacity="1" stroke-miterlimit="4"/><g fill="#000000" fill-opacity="1"><g transform="translate(10.996143, 216.203013)"><g><path d="M 10.0625 -6.71875 C 4.976562 -12.269531 2.4375 -19.070312 2.4375 -27.125 C 2.4375 -35.175781 4.976562 -41.988281 10.0625 -47.5625 C 15.144531 -53.144531 21.609375 -55.9375 29.453125 -55.9375 C 36.648438 -55.9375 42.582031 -53.675781 47.25 -49.15625 L 47.25 -54.34375 L 66 -54.34375 L 66 0 L 47.453125 0 L 47.453125 -6.140625 L 47.25 -6.140625 C 42.582031 -0.984375 36.648438 1.59375 29.453125 1.59375 C 21.609375 1.59375 15.144531 -1.175781 10.0625 -6.71875 Z M 26 -36.328125 C 23.570312 -33.929688 22.359375 -30.859375 22.359375 -27.109375 C 22.359375 -23.367188 23.519531 -20.316406 25.84375 -17.953125 C 28.175781 -15.585938 31.25 -14.40625 35.0625 -14.40625 C 38.738281 -14.40625 41.757812 -15.601562 44.125 -18 C 46.488281 -20.40625 47.671875 -23.445312 47.671875 -27.125 C 47.671875 -30.863281 46.453125 -33.929688 44.015625 -36.328125 C 41.578125 -38.734375 38.59375 -39.9375 35.0625 -39.9375 C 31.457031 -39.9375 28.4375 -38.734375 26 -36.328125 Z M 26 -36.328125 "/></g></g></g><g fill="#000000" fill-opacity="1"><g transform="translate(73.377296, 216.203013)"><g><path d="M 24.046875 -54.34375 L 24.046875 -28.5 C 24.046875 -23.132812 24.859375 -19.320312 26.484375 -17.0625 C 28.109375 -14.800781 30.863281 -13.671875 34.75 -13.671875 C 38.632812 -13.671875 41.390625 -14.800781 43.015625 -17.0625 C 44.640625 -19.320312 45.453125 -23.132812 45.453125 -28.5 L 45.453125 -54.34375 L 64.203125 -54.34375 L 64.203125 -23.9375 C 64.203125 -14.894531 61.851562 -8.378906 57.15625 -4.390625 C 52.457031 -0.398438 44.988281 1.59375 34.75 1.59375 C 24.507812 1.59375 17.039062 -0.398438 12.34375 -4.390625 C 7.644531 -8.378906 5.296875 -14.894531 5.296875 -23.9375 L 5.296875 -54.34375 Z M 24.046875 -54.34375 "/></g></g></g><g fill="#000000" fill-opacity="1"><g transform="translate(132.898742, 216.203013)"><g><path d="M 29.984375 -55.9375 C 33.085938 -55.9375 36.15625 -55.582031 39.1875 -54.875 C 42.226562 -54.164062 44.492188 -53.457031 45.984375 -52.75 L 48.203125 -51.703125 L 42.0625 -39.40625 C 37.820312 -41.664062 33.796875 -42.796875 29.984375 -42.796875 C 27.859375 -42.796875 26.351562 -42.566406 25.46875 -42.109375 C 24.59375 -41.648438 24.15625 -40.785156 24.15625 -39.515625 C 24.15625 -39.234375 24.1875 -38.953125 24.25 -38.671875 C 24.320312 -38.390625 24.460938 -38.125 24.671875 -37.875 C 24.890625 -37.625 25.085938 -37.410156 25.265625 -37.234375 C 25.441406 -37.054688 25.738281 -36.863281 26.15625 -36.65625 C 26.582031 -36.445312 26.921875 -36.285156 27.171875 -36.171875 C 27.421875 -36.066406 27.828125 -35.910156 28.390625 -35.703125 C 28.953125 -35.492188 29.375 -35.332031 29.65625 -35.21875 C 29.945312 -35.113281 30.425781 -34.953125 31.09375 -34.734375 C 31.757812 -34.523438 32.269531 -34.390625 32.625 -34.328125 C 34.8125 -33.691406 36.71875 -32.984375 38.34375 -32.203125 C 39.96875 -31.429688 41.679688 -30.375 43.484375 -29.03125 C 45.285156 -27.6875 46.679688 -25.988281 47.671875 -23.9375 C 48.660156 -21.894531 49.15625 -19.566406 49.15625 -16.953125 C 49.15625 -4.585938 40.570312 1.59375 23.40625 1.59375 C 19.519531 1.59375 15.828125 0.992188 12.328125 -0.203125 C 8.835938 -1.410156 6.316406 -2.613281 4.765625 -3.8125 L 2.4375 -5.71875 L 10.0625 -18.53125 C 10.625 -18.039062 11.363281 -17.457031 12.28125 -16.78125 C 13.207031 -16.113281 14.867188 -15.195312 17.265625 -14.03125 C 19.671875 -12.863281 21.753906 -12.28125 23.515625 -12.28125 C 27.398438 -12.28125 29.34375 -13.585938 29.34375 -16.203125 C 29.34375 -17.410156 28.847656 -18.347656 27.859375 -19.015625 C 26.867188 -19.679688 25.191406 -20.4375 22.828125 -21.28125 C 20.460938 -22.132812 18.609375 -22.914062 17.265625 -23.625 C 13.878906 -25.382812 11.195312 -27.378906 9.21875 -29.609375 C 7.238281 -31.835938 6.25 -34.785156 6.25 -38.453125 C 6.25 -43.960938 8.382812 -48.253906 12.65625 -51.328125 C 16.925781 -54.398438 22.703125 -55.9375 29.984375 -55.9375 Z M 29.984375 -55.9375 "/></g></g></g><g fill="#000000" fill-opacity="1"><g transform="translate(175.050095, 216.203013)"><g><path d="M 9.53125 -54.34375 L 9.53125 -74.578125 L 28.28125 -74.578125 L 28.28125 -54.34375 L 39.71875 -54.34375 L 39.71875 -40.046875 L 28.28125 -40.046875 L 28.28125 -22.78125 C 28.28125 -17.757812 29.691406 -15.25 32.515625 -15.25 C 33.222656 -15.25 33.960938 -15.390625 34.734375 -15.671875 C 35.515625 -15.960938 36.117188 -16.25 36.546875 -16.53125 L 37.1875 -16.953125 L 41.84375 -1.796875 C 37.820312 0.460938 33.234375 1.59375 28.078125 1.59375 C 24.546875 1.59375 21.507812 0.972656 18.96875 -0.265625 C 16.425781 -1.503906 14.5 -3.164062 13.1875 -5.25 C 11.882812 -7.332031 10.945312 -9.519531 10.375 -11.8125 C 9.8125 -14.101562 9.53125 -16.554688 9.53125 -19.171875 L 9.53125 -40.046875 L 1.6875 -40.046875 L 1.6875 -54.34375 Z M 9.53125 -54.34375 "/></g></g></g><g fill="#000000" fill-opacity="1"><g transform="translate(206.927656, 216.203013)"><g><path d="M 11.484375 -6.453125 C 5.453125 -11.828125 2.4375 -18.710938 2.4375 -27.109375 C 2.4375 -35.515625 5.578125 -42.421875 11.859375 -47.828125 C 18.148438 -53.234375 25.921875 -55.9375 35.171875 -55.9375 C 44.285156 -55.9375 51.96875 -53.21875 58.21875 -47.78125 C 64.46875 -42.34375 67.59375 -35.457031 67.59375 -27.125 C 67.59375 -18.789062 64.535156 -11.921875 58.421875 -6.515625 C 52.316406 -1.109375 44.566406 1.59375 35.171875 1.59375 C 25.421875 1.59375 17.523438 -1.085938 11.484375 -6.453125 Z M 26 -36.328125 C 23.570312 -33.929688 22.359375 -30.859375 22.359375 -27.109375 C 22.359375 -23.367188 23.519531 -20.316406 25.84375 -17.953125 C 28.175781 -15.585938 31.25 -14.40625 35.0625 -14.40625 C 38.738281 -14.40625 41.757812 -15.601562 44.125 -18 C 46.488281 -20.40625 47.671875 -23.445312 47.671875 -27.125 C 47.671875 -30.863281 46.453125 -33.929688 44.015625 -36.328125 C 41.578125 -38.734375 38.59375 -39.9375 35.0625 -39.9375 C 31.457031 -39.9375 28.4375 -38.734375 26 -36.328125 Z M 26 -36.328125 "/></g></g></g><g fill="#000000" fill-opacity="1"><g transform="translate(266.97866, 216.203013)"><g><path d="M 6.359375 0 L 6.359375 -54.34375 L 25.109375 -54.34375 L 25.109375 -48.625 L 25.3125 -48.625 C 30.1875 -53.5 35.378906 -55.9375 40.890625 -55.9375 C 43.578125 -55.9375 46.242188 -55.582031 48.890625 -54.875 C 51.535156 -54.164062 54.078125 -53.066406 56.515625 -51.578125 C 58.953125 -50.097656 60.929688 -48 62.453125 -45.28125 C 63.972656 -42.5625 64.734375 -39.40625 64.734375 -35.8125 L 64.734375 0 L 45.984375 0 L 45.984375 -30.71875 C 45.984375 -33.539062 45.082031 -36.007812 43.28125 -38.125 C 41.476562 -40.25 39.128906 -41.3125 36.234375 -41.3125 C 33.410156 -41.3125 30.847656 -40.21875 28.546875 -38.03125 C 26.253906 -35.84375 25.109375 -33.40625 25.109375 -30.71875 L 25.109375 0 Z M 6.359375 0 "/></g></g></g><g fill="#000000" fill-opacity="1"><g transform="translate(327.029688, 216.203013)"><g><path d="M 18.4375 -22.671875 C 21.820312 -22.671875 24.695312 -21.488281 27.0625 -19.125 C 29.425781 -16.757812 30.609375 -13.878906 30.609375 -10.484375 C 30.609375 -7.171875 29.425781 -4.328125 27.0625 -1.953125 C 24.695312 0.410156 21.820312 1.59375 18.4375 1.59375 C 15.113281 1.59375 12.269531 0.410156 9.90625 -1.953125 C 7.539062 -4.328125 6.359375 -7.171875 6.359375 -10.484375 C 6.359375 -13.878906 7.539062 -16.757812 9.90625 -19.125 C 12.269531 -21.488281 15.113281 -22.671875 18.4375 -22.671875 Z M 18.4375 -22.671875 "/></g></g></g><path stroke-linecap="butt" transform="matrix(1.551515, 0, 0, 1.551515, 63.045279, 223.255766)" fill="none" stroke-linejoin="miter" d="M 8.654366 4.998955 C 8.654366 5.137429 8.614083 5.275902 8.530999 5.411858 L 5.580254 9.576135 L 5.580254 13.340098 C 5.580254 13.521372 5.517311 13.679987 5.391426 13.80839 C 5.268059 13.936793 5.119515 13.999735 4.945793 13.999735 C 4.762001 13.999735 4.605904 13.936793 4.480019 13.80839 C 4.351616 13.679987 4.288673 13.521372 4.288673 13.340098 L 4.288673 9.465356 L 1.345481 5.49746 C 1.217078 5.331291 1.154136 5.165123 1.154136 4.998955 C 1.154136 4.817681 1.227149 4.661583 1.373176 4.53318 C 1.519202 4.407295 1.680335 4.341835 1.856574 4.341835 C 2.065543 4.341835 2.2443 4.442543 2.387809 4.643959 L 4.97097 8.216577 L 7.460976 4.656548 C 7.607003 4.447579 7.790795 4.341835 8.009835 4.341835 C 8.183556 4.341835 8.332101 4.407295 8.460503 4.53318 C 8.591424 4.661583 8.654366 4.817681 8.654366 4.998955 Z M 25.636258 10.399423 C 25.636258 11.11445 25.475125 11.753946 25.155377 12.322947 C 24.835629 12.891947 24.397549 13.335062 23.843655 13.657328 C 23.289761 13.977076 22.67796 14.138209 22.008251 14.138209 C 21.341061 14.138209 20.729259 13.977076 20.175365 13.657328 C 19.618953 13.335062 19.183391 12.891947 18.863643 12.322947 C 18.543895 11.753946 18.382762 11.11445 18.382762 10.399423 C 18.382762 9.684396 18.543895 9.039865 18.863643 8.460794 C 19.183391 7.88424 19.618953 7.436089 20.175365 7.116341 C 20.729259 6.796593 21.341061 6.637978 22.008251 6.637978 C 22.67796 6.637978 23.289761 6.796593 23.843655 7.116341 C 24.397549 7.436089 24.835629 7.88424 25.155377 8.460794 C 25.475125 9.039865 25.636258 9.684396 25.636258 10.399423 Z M 24.329571 10.399423 C 24.329571 9.905954 24.226346 9.465356 24.022412 9.075113 C 23.81596 8.687387 23.536496 8.385263 23.184018 8.16874 C 22.831539 7.952218 22.441296 7.843957 22.008251 7.843957 C 21.580242 7.843957 21.187481 7.952218 20.835003 8.16874 C 20.482525 8.385263 20.20306 8.687387 19.996608 9.075113 C 19.790157 9.465356 19.686931 9.905954 19.686931 10.399423 C 19.686931 10.885339 19.790157 11.320902 19.996608 11.70611 C 20.20306 12.091318 20.482525 12.390924 20.835003 12.607447 C 21.187481 12.821451 21.580242 12.929712 22.008251 12.929712 C 22.441296 12.929712 22.831539 12.821451 23.184018 12.607447 C 23.536496 12.390924 23.81596 12.091318 24.022412 11.70611 C 24.226346 11.320902 24.329571 10.885339 24.329571 10.399423 Z M 41.462525 6.801629 C 41.65387 6.801629 41.812486 6.864571 41.935853 6.992974 C 42.061738 7.118859 42.12468 7.274956 42.12468 7.458749 L 42.12468 11.11445 C 42.12468 12.068659 41.860322 12.808863 41.331605 13.335062 C 40.805405 13.861262 40.062684 14.123103 39.100922 14.123103 C 38.149231 14.123103 37.411545 13.861262 36.887863 13.335062 C 36.366699 12.808863 36.104858 12.068659 36.104858 11.11445 L 36.104858 7.458749 C 36.104858 7.274956 36.1678 7.118859 36.291168 6.992974 C 36.412017 6.864571 36.565597 6.801629 36.749389 6.801629 C 36.943252 6.801629 37.09935 6.864571 37.222717 6.992974 C 37.348602 7.118859 37.411545 7.274956 37.411545 7.458749 L 37.411545 11.11445 C 37.411545 12.312876 37.972992 12.912089 39.100922 12.912089 C 39.659851 12.912089 40.085343 12.761026 40.379914 12.46142 C 40.671967 12.159296 40.817994 11.711145 40.817994 11.11445 L 40.817994 7.458749 C 40.817994 7.274956 40.880936 7.118859 41.004304 6.992974 C 41.125153 6.864571 41.278733 6.801629 41.462525 6.801629 Z M 56.697133 6.637978 C 58.348744 6.637978 59.17455 7.624917 59.17455 9.601312 L 59.17455 13.340098 C 59.17455 13.521372 59.111608 13.679987 58.985723 13.80839 C 58.862355 13.936793 58.706258 13.999735 58.512395 13.999735 C 58.328603 13.999735 58.177541 13.936793 58.054173 13.80839 C 57.930806 13.679987 57.867863 13.521372 57.867863 13.340098 L 57.867863 9.616418 C 57.867863 9.07763 57.744496 8.647103 57.497761 8.327355 C 57.248509 8.00509 56.845677 7.843957 56.289265 7.843957 C 55.921681 7.843957 55.589344 7.924523 55.289738 8.085656 C 54.992649 8.244271 54.758503 8.458276 54.587299 8.730188 C 54.421131 8.999582 54.335529 9.29667 54.335529 9.616418 L 54.335529 13.340098 C 54.335529 13.521372 54.275104 13.679987 54.149219 13.80839 C 54.025852 13.936793 53.867237 13.999735 53.675892 13.999735 C 53.484546 13.999735 53.328449 13.93931 53.210117 13.815943 C 53.091785 13.690058 53.03136 13.531443 53.03136 13.340098 L 53.03136 7.458749 C 53.03136 7.274956 53.094303 7.118859 53.215152 6.992974 C 53.33852 6.864571 53.492099 6.801629 53.675892 6.801629 C 53.867237 6.801629 54.025852 6.864571 54.149219 6.992974 C 54.275104 7.118859 54.335529 7.274956 54.335529 7.458749 L 54.335529 7.942147 C 54.574711 7.574563 54.90453 7.267403 55.330021 7.015633 C 55.75803 6.763863 56.213734 6.637978 56.697133 6.637978 Z M 76.098535 6.703438 C 76.292398 6.703438 76.448495 6.766381 76.571863 6.892266 C 76.69523 7.015633 76.758172 7.176766 76.758172 7.378182 L 76.758172 13.423182 C 76.758172 14.165904 76.599557 14.785258 76.284845 15.283763 C 75.967614 15.782267 75.539605 16.152369 74.9983 16.389033 C 74.459512 16.628215 73.850228 16.746547 73.170449 16.746547 C 72.8079 16.746547 72.377373 16.683604 71.886421 16.555202 C 71.39547 16.429317 71.083275 16.295878 70.947319 16.157405 C 70.662819 16.011378 70.521828 15.827586 70.521828 15.606028 C 70.521828 15.553157 70.539451 15.480143 70.574699 15.389506 C 70.675407 15.157878 70.846611 15.042063 71.085793 15.042063 C 71.204124 15.042063 71.332527 15.072276 71.471001 15.127665 C 72.201134 15.412165 72.77517 15.553157 73.188073 15.553157 C 73.918206 15.553157 74.479653 15.376918 74.867379 15.021922 C 75.257623 14.669444 75.451486 14.186045 75.451486 13.574244 L 75.451486 12.831522 C 75.26014 13.191553 74.937875 13.498713 74.482171 13.755518 C 74.031502 14.009806 73.553139 14.138209 73.049599 14.138209 C 72.417656 14.138209 71.838585 13.977076 71.317421 13.657328 C 70.796257 13.335062 70.385872 12.889429 70.088783 12.315393 C 69.791694 11.743875 69.64315 11.099344 69.64315 10.386835 C 69.64315 9.671808 69.791694 9.027276 70.088783 8.455758 C 70.385872 7.881722 70.793739 7.436089 71.309868 7.116341 C 71.828514 6.796593 72.397515 6.637978 73.019387 6.637978 C 73.525445 6.637978 73.996255 6.751275 74.429299 6.977868 C 74.864861 7.206979 75.207269 7.486443 75.451486 7.81878 L 75.451486 7.378182 C 75.451486 7.186837 75.51191 7.025704 75.630242 6.897301 C 75.751092 6.768899 75.90719 6.703438 76.098535 6.703438 Z M 73.200661 12.929712 C 73.648812 12.929712 74.046609 12.821451 74.396569 12.607447 C 74.744012 12.390924 75.018441 12.0888 75.214822 11.698557 C 75.411202 11.310831 75.509393 10.872751 75.509393 10.386835 C 75.509393 9.900918 75.411202 9.467874 75.214822 9.082666 C 75.018441 8.697457 74.744012 8.395333 74.396569 8.176293 C 74.046609 7.954736 73.648812 7.843957 73.200661 7.843957 C 72.760064 7.843957 72.367302 7.954736 72.017342 8.176293 C 71.669899 8.395333 71.397987 8.699975 71.201607 9.090219 C 71.005226 9.477945 70.907036 9.910989 70.907036 10.386835 C 70.907036 10.86268 71.005226 11.295725 71.201607 11.685968 C 71.397987 12.073694 71.669899 12.380854 72.017342 12.602411 C 72.367302 12.821451 72.760064 12.929712 73.200661 12.929712 Z M 91.265164 6.637978 C 91.889554 6.637978 92.453519 6.796593 92.957059 7.116341 C 93.460599 7.436089 93.855878 7.879205 94.145414 8.448205 C 94.432432 9.017205 94.575941 9.659219 94.575941 10.374246 C 94.575941 11.086755 94.432432 11.731287 94.145414 12.310358 C 93.855878 12.886912 93.460599 13.335062 92.957059 13.657328 C 92.453519 13.977076 91.899625 14.138209 91.292859 14.138209 C 90.817013 14.138209 90.373898 14.032465 89.960995 13.820978 C 89.55061 13.612009 89.215756 13.350168 88.95895 13.037974 L 88.95895 13.43577 C 88.95895 13.619562 88.896008 13.77566 88.770123 13.90658 C 88.646755 14.032465 88.490658 14.097926 88.296795 14.097926 C 88.113003 14.097926 87.961941 14.034983 87.838573 13.911616 C 87.715206 13.788248 87.652264 13.629633 87.652264 13.43577 L 87.652264 4.492897 C 87.652264 4.301552 87.712688 4.142937 87.83102 4.019569 C 87.949352 3.896202 88.10545 3.83326 88.296795 3.83326 C 88.490658 3.83326 88.646755 3.896202 88.770123 4.027122 C 88.896008 4.155525 88.95895 4.309105 88.95895 4.492897 L 88.95895 7.843957 C 89.17799 7.516656 89.497738 7.232156 89.918194 6.995492 C 90.341168 6.75631 90.789319 6.637978 91.265164 6.637978 Z M 91.114102 12.929712 C 91.534558 12.929712 91.914731 12.818934 92.254621 12.594858 C 92.59451 12.368265 92.858869 12.061106 93.045179 11.670862 C 93.231489 11.283136 93.327161 10.850092 93.327161 10.374246 C 93.327161 9.898401 93.231489 9.467874 93.045179 9.082666 C 92.858869 8.697457 92.59451 8.395333 92.254621 8.176293 C 91.914731 7.954736 91.534558 7.843957 91.114102 7.843957 C 90.683575 7.843957 90.298367 7.954736 89.958478 8.176293 C 89.621106 8.395333 89.356747 8.69494 89.170437 9.075113 C 88.98161 9.455285 88.888455 9.88833 88.888455 10.374246 C 88.888455 10.860162 88.98161 11.293207 89.170437 11.678415 C 89.356747 12.063623 89.621106 12.368265 89.958478 12.594858 C 90.298367 12.818934 90.683575 12.929712 91.114102 12.929712 Z M 106.462006 13.340098 C 106.462006 13.521372 106.396546 13.679987 106.268143 13.80839 C 106.13974 13.936793 105.983643 13.999735 105.802369 13.999735 C 105.618576 13.999735 105.464997 13.936793 105.341629 13.80839 C 105.218262 13.679987 105.157837 13.521372 105.157837 13.340098 L 105.157837 4.492897 C 105.157837 4.309105 105.22078 4.155525 105.349182 4.027122 C 105.475067 3.896202 105.631165 3.83326 105.814957 3.83326 C 105.998749 3.83326 106.152329 3.896202 106.273179 4.027122 C 106.399064 4.155525 106.462006 4.309105 106.462006 4.492897 Z M 124.294881 10.399423 C 124.294881 11.11445 124.133748 11.753946 123.814 12.322947 C 123.494252 12.891947 123.05869 13.335062 122.502278 13.657328 C 121.948384 13.977076 121.336582 14.138209 120.669392 14.138209 C 119.999683 14.138209 119.387882 13.977076 118.833988 13.657328 C 118.280094 13.335062 117.842014 12.891947 117.522266 12.322947 C 117.202518 11.753946 117.041385 11.11445 117.041385 10.399423 C 117.041385 9.684396 117.202518 9.039865 117.522266 8.460794 C 117.842014 7.88424 118.280094 7.436089 118.833988 7.116341 C 119.387882 6.796593 119.999683 6.637978 120.669392 6.637978 C 121.336582 6.637978 121.948384 6.796593 122.502278 7.116341 C 123.05869 7.436089 123.494252 7.88424 123.814 8.460794 C 124.133748 9.039865 124.294881 9.684396 124.294881 10.399423 Z M 122.990712 10.399423 C 122.990712 9.905954 122.887486 9.465356 122.681035 9.075113 C 122.474583 8.687387 122.195118 8.385263 121.84264 8.16874 C 121.49268 7.952218 121.099918 7.843957 120.669392 7.843957 C 120.238865 7.843957 119.848621 7.952218 119.493625 8.16874 C 119.141147 8.385263 118.861682 8.687387 118.655231 9.075113 C 118.451297 9.465356 118.348071 9.905954 118.348071 10.399423 C 118.348071 10.885339 118.451297 11.320902 118.655231 11.70611 C 118.861682 12.091318 119.141147 12.390924 119.493625 12.607447 C 119.848621 12.821451 120.238865 12.929712 120.669392 12.929712 C 121.099918 12.929712 121.49268 12.821451 121.84264 12.607447 C 122.195118 12.390924 122.474583 12.091318 122.681035 11.70611 C 122.887486 11.320902 122.990712 10.885339 122.990712 10.399423 Z M 141.578897 10.399423 C 141.578897 11.11445 141.417764 11.753946 141.098016 12.322947 C 140.778268 12.891947 140.340188 13.335062 139.786294 13.657328 C 139.232399 13.977076 138.620598 14.138209 137.95089 14.138209 C 137.283699 14.138209 136.671898 13.977076 136.118004 13.657328 C 135.561592 13.335062 135.126029 12.891947 134.806281 12.322947 C 134.486533 11.753946 134.325401 11.11445 134.325401 10.399423 C 134.325401 9.684396 134.486533 9.039865 134.806281 8.460794 C 135.126029 7.88424 135.561592 7.436089 136.118004 7.116341 C 136.671898 6.796593 137.283699 6.637978 137.95089 6.637978 C 138.620598 6.637978 139.232399 6.796593 139.786294 7.116341 C 140.340188 7.436089 140.778268 7.88424 141.098016 8.460794 C 141.417764 9.039865 141.578897 9.684396 141.578897 10.399423 Z M 140.27221 10.399423 C 140.27221 9.905954 140.171502 9.465356 139.96505 9.075113 C 139.758599 8.687387 139.479134 8.385263 139.126656 8.16874 C 138.774178 7.952218 138.383934 7.843957 137.95089 7.843957 C 137.522881 7.843957 137.130119 7.952218 136.777641 8.16874 C 136.425163 8.385263 136.145698 8.687387 135.939247 9.075113 C 135.732795 9.465356 135.62957 9.905954 135.62957 10.399423 C 135.62957 10.885339 135.732795 11.320902 135.939247 11.70611 C 136.145698 12.091318 136.425163 12.390924 136.777641 12.607447 C 137.130119 12.821451 137.522881 12.929712 137.95089 12.929712 C 138.383934 12.929712 138.774178 12.821451 139.126656 12.607447 C 139.479134 12.390924 139.758599 12.091318 139.96505 11.70611 C 140.171502 11.320902 140.27221 10.885339 140.27221 10.399423 Z M 157.888562 3.83326 C 158.079907 3.83326 158.238523 3.896202 158.36189 4.019569 C 158.485257 4.142937 158.545682 4.301552 158.545682 4.492897 L 158.545682 13.340098 C 158.545682 13.521372 158.485257 13.679987 158.36189 13.80839 C 158.238523 13.936793 158.079907 13.999735 157.888562 13.999735 C 157.697217 13.999735 157.538602 13.93931 157.417752 13.815943 C 157.29942 13.690058 157.241513 13.531443 157.241513 13.340098 L 157.241513 12.957407 C 157.012402 13.284708 156.690137 13.564173 156.272198 13.795801 C 155.856778 14.022395 155.408627 14.138209 154.932781 14.138209 C 154.308392 14.138209 153.746944 13.977076 153.243404 13.657328 C 152.739864 13.335062 152.342067 12.889429 152.047496 12.315393 C 151.755443 11.743875 151.609416 11.099344 151.609416 10.386835 C 151.609416 9.671808 151.752925 9.027276 152.042461 8.455758 C 152.329479 7.881722 152.724758 7.436089 153.228298 7.116341 C 153.731838 6.796593 154.285732 6.637978 154.892498 6.637978 C 155.378414 6.637978 155.826565 6.738686 156.23695 6.937585 C 156.649853 7.139001 156.984708 7.400842 157.241513 7.72059 L 157.241513 4.492897 C 157.241513 4.301552 157.29942 4.142937 157.417752 4.019569 C 157.538602 3.896202 157.697217 3.83326 157.888562 3.83326 Z M 155.083843 12.929712 C 155.516888 12.929712 155.897061 12.821451 156.231915 12.602411 C 156.566769 12.380854 156.82861 12.076212 157.012402 11.691004 C 157.20123 11.308313 157.294385 10.872751 157.294385 10.386835 C 157.294385 9.910989 157.20123 9.477945 157.012402 9.090219 C 156.82861 8.699975 156.566769 8.395333 156.231915 8.176293 C 155.897061 7.954736 155.516888 7.843957 155.083843 7.843957 C 154.655834 7.843957 154.273144 7.954736 153.935772 8.176293 C 153.603435 8.395333 153.344112 8.699975 153.155285 9.090219 C 152.966457 9.477945 152.873302 9.910989 152.873302 10.386835 C 152.873302 10.872751 152.966457 11.308313 153.155285 11.691004 C 153.344112 12.076212 153.603435 12.380854 153.935772 12.602411 C 154.273144 12.821451 154.655834 12.929712 155.083843 12.929712 Z M 155.083843 12.929712 " stroke="#ffffff" stroke-width="0.68714" stroke-opacity="1" stroke-miterlimit="4"/><g fill="#000000" fill-opacity="1"><g transform="translate(64.451339, 244.976973)"><g><path d="M 12.015625 -13.953125 C 12.015625 -13.742188 11.953125 -13.53125 11.828125 -13.3125 L 7.25 -6.859375 L 7.25 -1.015625 C 7.25 -0.734375 7.148438 -0.492188 6.953125 -0.296875 C 6.765625 -0.0976562 6.535156 0 6.265625 0 C 5.984375 0 5.742188 -0.0976562 5.546875 -0.296875 C 5.347656 -0.492188 5.25 -0.734375 5.25 -1.015625 L 5.25 -7.03125 L 0.6875 -13.1875 C 0.488281 -13.445312 0.390625 -13.703125 0.390625 -13.953125 C 0.390625 -14.242188 0.5 -14.488281 0.71875 -14.6875 C 0.945312 -14.882812 1.195312 -14.984375 1.46875 -14.984375 C 1.789062 -14.984375 2.066406 -14.828125 2.296875 -14.515625 L 6.3125 -8.96875 L 10.171875 -14.5 C 10.390625 -14.820312 10.671875 -14.984375 11.015625 -14.984375 C 11.285156 -14.984375 11.519531 -14.882812 11.71875 -14.6875 C 11.914062 -14.488281 12.015625 -14.242188 12.015625 -13.953125 Z M 12.015625 -13.953125 "/></g></g></g><g fill="#000000" fill-opacity="1"><g transform="translate(90.733921, 244.976973)"><g><path d="M 12.078125 -5.578125 C 12.078125 -4.472656 11.828125 -3.476562 11.328125 -2.59375 C 10.835938 -1.71875 10.160156 -1.03125 9.296875 -0.53125 C 8.441406 -0.03125 7.492188 0.21875 6.453125 0.21875 C 5.421875 0.21875 4.472656 -0.03125 3.609375 -0.53125 C 2.753906 -1.03125 2.078125 -1.71875 1.578125 -2.59375 C 1.078125 -3.476562 0.828125 -4.472656 0.828125 -5.578125 C 0.828125 -6.691406 1.078125 -7.695312 1.578125 -8.59375 C 2.078125 -9.488281 2.753906 -10.179688 3.609375 -10.671875 C 4.472656 -11.171875 5.421875 -11.421875 6.453125 -11.421875 C 7.492188 -11.421875 8.441406 -11.171875 9.296875 -10.671875 C 10.160156 -10.179688 10.835938 -9.488281 11.328125 -8.59375 C 11.828125 -7.695312 12.078125 -6.691406 12.078125 -5.578125 Z M 10.0625 -5.578125 C 10.0625 -6.347656 9.898438 -7.035156 9.578125 -7.640625 C 9.253906 -8.242188 8.816406 -8.710938 8.265625 -9.046875 C 7.722656 -9.378906 7.117188 -9.546875 6.453125 -9.546875 C 5.785156 -9.546875 5.175781 -9.378906 4.625 -9.046875 C 4.082031 -8.710938 3.648438 -8.242188 3.328125 -7.640625 C 3.015625 -7.035156 2.859375 -6.347656 2.859375 -5.578125 C 2.859375 -4.828125 3.015625 -4.148438 3.328125 -3.546875 C 3.648438 -2.953125 4.082031 -2.488281 4.625 -2.15625 C 5.175781 -1.820312 5.785156 -1.65625 6.453125 -1.65625 C 7.117188 -1.65625 7.722656 -1.820312 8.265625 -2.15625 C 8.816406 -2.488281 9.253906 -2.953125 9.578125 -3.546875 C 9.898438 -4.148438 10.0625 -4.828125 10.0625 -5.578125 Z M 10.0625 -5.578125 "/></g></g></g><g fill="#000000" fill-opacity="1"><g transform="translate(117.549244, 244.976973)"><g><path d="M 9.828125 -11.171875 C 10.117188 -11.171875 10.359375 -11.070312 10.546875 -10.875 C 10.742188 -10.675781 10.84375 -10.429688 10.84375 -10.140625 L 10.84375 -4.46875 C 10.84375 -3 10.429688 -1.851562 9.609375 -1.03125 C 8.796875 -0.21875 7.644531 0.1875 6.15625 0.1875 C 4.675781 0.1875 3.53125 -0.21875 2.71875 -1.03125 C 1.914062 -1.851562 1.515625 -3 1.515625 -4.46875 L 1.515625 -10.140625 C 1.515625 -10.429688 1.609375 -10.675781 1.796875 -10.875 C 1.992188 -11.070312 2.234375 -11.171875 2.515625 -11.171875 C 2.816406 -11.171875 3.0625 -11.070312 3.25 -10.875 C 3.4375 -10.675781 3.53125 -10.429688 3.53125 -10.140625 L 3.53125 -4.46875 C 3.53125 -2.613281 4.40625 -1.6875 6.15625 -1.6875 C 7.019531 -1.6875 7.679688 -1.921875 8.140625 -2.390625 C 8.597656 -2.859375 8.828125 -3.550781 8.828125 -4.46875 L 8.828125 -10.140625 C 8.828125 -10.429688 8.921875 -10.675781 9.109375 -10.875 C 9.304688 -11.070312 9.546875 -11.171875 9.828125 -11.171875 Z M 9.828125 -11.171875 "/></g></g></g><g fill="#000000" fill-opacity="1"><g transform="translate(143.810519, 244.976973)"><g><path d="M 7.203125 -11.421875 C 9.765625 -11.421875 11.046875 -9.882812 11.046875 -6.8125 L 11.046875 -1.015625 C 11.046875 -0.734375 10.945312 -0.492188 10.75 -0.296875 C 10.5625 -0.0976562 10.316406 0 10.015625 0 C 9.734375 0 9.492188 -0.0976562 9.296875 -0.296875 C 9.109375 -0.492188 9.015625 -0.734375 9.015625 -1.015625 L 9.015625 -6.796875 C 9.015625 -7.640625 8.820312 -8.304688 8.4375 -8.796875 C 8.050781 -9.296875 7.425781 -9.546875 6.5625 -9.546875 C 6 -9.546875 5.484375 -9.421875 5.015625 -9.171875 C 4.554688 -8.921875 4.191406 -8.585938 3.921875 -8.171875 C 3.660156 -7.753906 3.53125 -7.296875 3.53125 -6.796875 L 3.53125 -1.015625 C 3.53125 -0.734375 3.4375 -0.492188 3.25 -0.296875 C 3.0625 -0.0976562 2.816406 0 2.515625 0 C 2.210938 0 1.96875 -0.09375 1.78125 -0.28125 C 1.601562 -0.476562 1.515625 -0.722656 1.515625 -1.015625 L 1.515625 -10.140625 C 1.515625 -10.429688 1.609375 -10.675781 1.796875 -10.875 C 1.992188 -11.070312 2.234375 -11.171875 2.515625 -11.171875 C 2.816406 -11.171875 3.0625 -11.070312 3.25 -10.875 C 3.4375 -10.675781 3.53125 -10.429688 3.53125 -10.140625 L 3.53125 -9.40625 C 3.90625 -9.96875 4.421875 -10.441406 5.078125 -10.828125 C 5.742188 -11.222656 6.453125 -11.421875 7.203125 -11.421875 Z M 7.203125 -11.421875 "/></g></g></g><g fill="#000000" fill-opacity="1"><g transform="translate(170.263579, 244.976973)"><g><path d="M 10.84375 -11.3125 C 11.144531 -11.3125 11.390625 -11.210938 11.578125 -11.015625 C 11.773438 -10.828125 11.875 -10.578125 11.875 -10.265625 L 11.875 -0.890625 C 11.875 0.253906 11.628906 1.210938 11.140625 1.984375 C 10.648438 2.765625 9.984375 3.335938 9.140625 3.703125 C 8.304688 4.078125 7.363281 4.265625 6.3125 4.265625 C 5.738281 4.265625 5.070312 4.164062 4.3125 3.96875 C 3.550781 3.769531 3.066406 3.5625 2.859375 3.34375 C 2.410156 3.113281 2.1875 2.832031 2.1875 2.5 C 2.1875 2.40625 2.21875 2.289062 2.28125 2.15625 C 2.4375 1.800781 2.695312 1.625 3.0625 1.625 C 3.25 1.625 3.453125 1.664062 3.671875 1.75 C 4.804688 2.1875 5.691406 2.40625 6.328125 2.40625 C 7.460938 2.40625 8.332031 2.128906 8.9375 1.578125 C 9.539062 1.035156 9.84375 0.289062 9.84375 -0.65625 L 9.84375 -1.8125 C 9.550781 -1.257812 9.050781 -0.78125 8.34375 -0.375 C 7.632812 0.0195312 6.890625 0.21875 6.109375 0.21875 C 5.128906 0.21875 4.234375 -0.03125 3.421875 -0.53125 C 2.617188 -1.03125 1.984375 -1.722656 1.515625 -2.609375 C 1.054688 -3.492188 0.828125 -4.492188 0.828125 -5.609375 C 0.828125 -6.710938 1.054688 -7.707031 1.515625 -8.59375 C 1.984375 -9.488281 2.617188 -10.179688 3.421875 -10.671875 C 4.222656 -11.171875 5.109375 -11.421875 6.078125 -11.421875 C 6.859375 -11.421875 7.582031 -11.242188 8.25 -10.890625 C 8.925781 -10.535156 9.457031 -10.101562 9.84375 -9.59375 L 9.84375 -10.265625 C 9.84375 -10.566406 9.9375 -10.816406 10.125 -11.015625 C 10.3125 -11.210938 10.550781 -11.3125 10.84375 -11.3125 Z M 6.34375 -1.65625 C 7.039062 -1.65625 7.660156 -1.820312 8.203125 -2.15625 C 8.742188 -2.488281 9.164062 -2.957031 9.46875 -3.5625 C 9.78125 -4.164062 9.9375 -4.847656 9.9375 -5.609375 C 9.9375 -6.359375 9.78125 -7.03125 9.46875 -7.625 C 9.164062 -8.226562 8.742188 -8.695312 8.203125 -9.03125 C 7.660156 -9.375 7.039062 -9.546875 6.34375 -9.546875 C 5.664062 -9.546875 5.054688 -9.375 4.515625 -9.03125 C 3.972656 -8.695312 3.550781 -8.226562 3.25 -7.625 C 2.945312 -7.019531 2.796875 -6.347656 2.796875 -5.609375 C 2.796875 -4.867188 2.945312 -4.195312 3.25 -3.59375 C 3.550781 -2.988281 3.972656 -2.515625 4.515625 -2.171875 C 5.054688 -1.828125 5.664062 -1.65625 6.34375 -1.65625 Z M 6.34375 -1.65625 "/></g></g></g><g fill="#000000" fill-opacity="1"><g transform="translate(197.526392, 244.976973)"><g><path d="M 7.125 -11.421875 C 8.082031 -11.421875 8.953125 -11.171875 9.734375 -10.671875 C 10.515625 -10.179688 11.128906 -9.492188 11.578125 -8.609375 C 12.023438 -7.722656 12.25 -6.726562 12.25 -5.625 C 12.25 -4.519531 12.023438 -3.519531 11.578125 -2.625 C 11.128906 -1.726562 10.515625 -1.03125 9.734375 -0.53125 C 8.953125 -0.03125 8.09375 0.21875 7.15625 0.21875 C 6.414062 0.21875 5.726562 0.0546875 5.09375 -0.265625 C 4.457031 -0.597656 3.9375 -1.003906 3.53125 -1.484375 L 3.53125 -0.875 C 3.53125 -0.59375 3.4375 -0.347656 3.25 -0.140625 C 3.0625 0.0546875 2.816406 0.15625 2.515625 0.15625 C 2.234375 0.15625 1.992188 0.0625 1.796875 -0.125 C 1.609375 -0.320312 1.515625 -0.570312 1.515625 -0.875 L 1.515625 -14.75 C 1.515625 -15.050781 1.601562 -15.296875 1.78125 -15.484375 C 1.96875 -15.671875 2.210938 -15.765625 2.515625 -15.765625 C 2.816406 -15.765625 3.0625 -15.664062 3.25 -15.46875 C 3.4375 -15.269531 3.53125 -15.03125 3.53125 -14.75 L 3.53125 -9.546875 C 3.875 -10.054688 4.375 -10.492188 5.03125 -10.859375 C 5.6875 -11.234375 6.382812 -11.421875 7.125 -11.421875 Z M 6.890625 -1.65625 C 7.535156 -1.65625 8.117188 -1.828125 8.640625 -2.171875 C 9.171875 -2.523438 9.582031 -3.003906 9.875 -3.609375 C 10.164062 -4.210938 10.3125 -4.882812 10.3125 -5.625 C 10.3125 -6.363281 10.164062 -7.03125 9.875 -7.625 C 9.582031 -8.226562 9.171875 -8.695312 8.640625 -9.03125 C 8.117188 -9.375 7.535156 -9.546875 6.890625 -9.546875 C 6.210938 -9.546875 5.613281 -9.375 5.09375 -9.03125 C 4.570312 -8.695312 4.164062 -8.234375 3.875 -7.640625 C 3.582031 -7.046875 3.4375 -6.375 3.4375 -5.625 C 3.4375 -4.875 3.582031 -4.195312 3.875 -3.59375 C 4.164062 -3 4.570312 -2.523438 5.09375 -2.171875 C 5.613281 -1.828125 6.210938 -1.65625 6.890625 -1.65625 Z M 6.890625 -1.65625 "/></g></g></g><g fill="#000000" fill-opacity="1"><g transform="translate(224.512193, 244.976973)"><g><path d="M 3.703125 -1.015625 C 3.703125 -0.734375 3.601562 -0.492188 3.40625 -0.296875 C 3.207031 -0.0976562 2.96875 0 2.6875 0 C 2.40625 0 2.164062 -0.0976562 1.96875 -0.296875 C 1.78125 -0.492188 1.6875 -0.734375 1.6875 -1.015625 L 1.6875 -14.75 C 1.6875 -15.03125 1.785156 -15.269531 1.984375 -15.46875 C 2.179688 -15.664062 2.421875 -15.765625 2.703125 -15.765625 C 2.992188 -15.765625 3.234375 -15.664062 3.421875 -15.46875 C 3.609375 -15.269531 3.703125 -15.03125 3.703125 -14.75 Z M 3.703125 -1.015625 "/></g></g></g><g fill="#000000" fill-opacity="1"><g transform="translate(243.805429, 244.976973)"><g><path d="M 12.078125 -5.578125 C 12.078125 -4.472656 11.828125 -3.476562 11.328125 -2.59375 C 10.835938 -1.71875 10.160156 -1.03125 9.296875 -0.53125 C 8.441406 -0.03125 7.492188 0.21875 6.453125 0.21875 C 5.421875 0.21875 4.472656 -0.03125 3.609375 -0.53125 C 2.753906 -1.03125 2.078125 -1.71875 1.578125 -2.59375 C 1.078125 -3.476562 0.828125 -4.472656 0.828125 -5.578125 C 0.828125 -6.691406 1.078125 -7.695312 1.578125 -8.59375 C 2.078125 -9.488281 2.753906 -10.179688 3.609375 -10.671875 C 4.472656 -11.171875 5.421875 -11.421875 6.453125 -11.421875 C 7.492188 -11.421875 8.441406 -11.171875 9.296875 -10.671875 C 10.160156 -10.179688 10.835938 -9.488281 11.328125 -8.59375 C 11.828125 -7.695312 12.078125 -6.691406 12.078125 -5.578125 Z M 10.0625 -5.578125 C 10.0625 -6.347656 9.898438 -7.035156 9.578125 -7.640625 C 9.253906 -8.242188 8.816406 -8.710938 8.265625 -9.046875 C 7.722656 -9.378906 7.117188 -9.546875 6.453125 -9.546875 C 5.785156 -9.546875 5.175781 -9.378906 4.625 -9.046875 C 4.082031 -8.710938 3.648438 -8.242188 3.328125 -7.640625 C 3.015625 -7.035156 2.859375 -6.347656 2.859375 -5.578125 C 2.859375 -4.828125 3.015625 -4.148438 3.328125 -3.546875 C 3.648438 -2.953125 4.082031 -2.488281 4.625 -2.15625 C 5.175781 -1.820312 5.785156 -1.65625 6.453125 -1.65625 C 7.117188 -1.65625 7.722656 -1.820312 8.265625 -2.15625 C 8.816406 -2.488281 9.253906 -2.953125 9.578125 -3.546875 C 9.898438 -4.148438 10.0625 -4.828125 10.0625 -5.578125 Z M 10.0625 -5.578125 "/></g></g></g><g fill="#000000" fill-opacity="1"><g transform="translate(270.620753, 244.976973)"><g><path d="M 12.078125 -5.578125 C 12.078125 -4.472656 11.828125 -3.476562 11.328125 -2.59375 C 10.835938 -1.71875 10.160156 -1.03125 9.296875 -0.53125 C 8.441406 -0.03125 7.492188 0.21875 6.453125 0.21875 C 5.421875 0.21875 4.472656 -0.03125 3.609375 -0.53125 C 2.753906 -1.03125 2.078125 -1.71875 1.578125 -2.59375 C 1.078125 -3.476562 0.828125 -4.472656 0.828125 -5.578125 C 0.828125 -6.691406 1.078125 -7.695312 1.578125 -8.59375 C 2.078125 -9.488281 2.753906 -10.179688 3.609375 -10.671875 C 4.472656 -11.171875 5.421875 -11.421875 6.453125 -11.421875 C 7.492188 -11.421875 8.441406 -11.171875 9.296875 -10.671875 C 10.160156 -10.179688 10.835938 -9.488281 11.328125 -8.59375 C 11.828125 -7.695312 12.078125 -6.691406 12.078125 -5.578125 Z M 10.0625 -5.578125 C 10.0625 -6.347656 9.898438 -7.035156 9.578125 -7.640625 C 9.253906 -8.242188 8.816406 -8.710938 8.265625 -9.046875 C 7.722656 -9.378906 7.117188 -9.546875 6.453125 -9.546875 C 5.785156 -9.546875 5.175781 -9.378906 4.625 -9.046875 C 4.082031 -8.710938 3.648438 -8.242188 3.328125 -7.640625 C 3.015625 -7.035156 2.859375 -6.347656 2.859375 -5.578125 C 2.859375 -4.828125 3.015625 -4.148438 3.328125 -3.546875 C 3.648438 -2.953125 4.082031 -2.488281 4.625 -2.15625 C 5.175781 -1.820312 5.785156 -1.65625 6.453125 -1.65625 C 7.117188 -1.65625 7.722656 -1.820312 8.265625 -2.15625 C 8.816406 -2.488281 9.253906 -2.953125 9.578125 -3.546875 C 9.898438 -4.148438 10.0625 -4.828125 10.0625 -5.578125 Z M 10.0625 -5.578125 "/></g></g></g><g fill="#000000" fill-opacity="1"><g transform="translate(297.436087, 244.976973)"><g><path d="M 10.578125 -15.765625 C 10.867188 -15.765625 11.109375 -15.671875 11.296875 -15.484375 C 11.492188 -15.296875 11.59375 -15.050781 11.59375 -14.75 L 11.59375 -1.015625 C 11.59375 -0.734375 11.492188 -0.492188 11.296875 -0.296875 C 11.109375 -0.0976562 10.867188 0 10.578125 0 C 10.273438 0 10.03125 -0.09375 9.84375 -0.28125 C 9.65625 -0.476562 9.5625 -0.722656 9.5625 -1.015625 L 9.5625 -1.625 C 9.207031 -1.113281 8.707031 -0.675781 8.0625 -0.3125 C 7.414062 0.0390625 6.722656 0.21875 5.984375 0.21875 C 5.023438 0.21875 4.148438 -0.03125 3.359375 -0.53125 C 2.578125 -1.03125 1.957031 -1.722656 1.5 -2.609375 C 1.050781 -3.492188 0.828125 -4.492188 0.828125 -5.609375 C 0.828125 -6.710938 1.050781 -7.707031 1.5 -8.59375 C 1.945312 -9.488281 2.5625 -10.179688 3.34375 -10.671875 C 4.125 -11.171875 4.984375 -11.421875 5.921875 -11.421875 C 6.671875 -11.421875 7.363281 -11.265625 8 -10.953125 C 8.644531 -10.640625 9.164062 -10.234375 9.5625 -9.734375 L 9.5625 -14.75 C 9.5625 -15.050781 9.65625 -15.296875 9.84375 -15.484375 C 10.03125 -15.671875 10.273438 -15.765625 10.578125 -15.765625 Z M 6.21875 -1.65625 C 6.882812 -1.65625 7.476562 -1.828125 8 -2.171875 C 8.519531 -2.515625 8.925781 -2.984375 9.21875 -3.578125 C 9.507812 -4.171875 9.65625 -4.847656 9.65625 -5.609375 C 9.65625 -6.347656 9.507812 -7.019531 9.21875 -7.625 C 8.925781 -8.226562 8.519531 -8.695312 8 -9.03125 C 7.476562 -9.375 6.882812 -9.546875 6.21875 -9.546875 C 5.550781 -9.546875 4.957031 -9.375 4.4375 -9.03125 C 3.925781 -8.695312 3.523438 -8.226562 3.234375 -7.625 C 2.941406 -7.019531 2.796875 -6.347656 2.796875 -5.609375 C 2.796875 -4.847656 2.941406 -4.171875 3.234375 -3.578125 C 3.523438 -2.984375 3.925781 -2.515625 4.4375 -2.171875 C 4.957031 -1.828125 5.550781 -1.65625 6.21875 -1.65625 Z M 6.21875 -1.65625 "/></g></g></g></svg>